<svg xmlns="http://www.w3.org/2000/svg" width="53" height="60" viewBox="0 0 53 60" fill="none"><path d="M17.9436 53.594C18.5547 57.1576 21.6213 59.7436 25.2354 59.7436C28.8503 59.7436 31.9179 57.1576 32.529 53.594L32.5664 53.377H17.9062L17.9436 53.594Z" fill="#44BCFF"></path><path d="M50.1821 43.4053C49.5839 42.8069 48.9745 42.301 48.3849 41.8112C45.905 39.7519 43.7631 37.9736 43.7631 30.5897V24.7327C43.7631 16.1202 37.7119 8.56309 29.3394 6.66832C29.675 6.01021 29.8451 5.31849 29.8451 4.60821C29.8451 2.06746 27.7775 0 25.2359 0C22.6949 0 20.6277 2.06746 20.6277 4.60821C20.6277 5.31895 20.7975 6.01056 21.1334 6.66832C12.7605 8.56309 6.70967 16.1202 6.70967 24.7327V30.5897C6.70967 37.9736 4.56776 39.7521 2.08792 41.8112C1.49842 42.3009 0.888843 42.8069 0.290704 43.4053L0.236328 43.4597V49.2705H50.2363V43.4597L50.1821 43.4053Z" fill="#44BCFF"></path><circle cx="43" cy="15" r="10" fill="#FF0A0A"></circle><path d="M43.9645 9.09091V20H42.6435V10.4759H42.5795L39.9162 12.2443V10.902L42.6435 9.09091H43.9645Z" fill="white"></path></svg>