<svg xmlns="http://www.w3.org/2000/svg" xmlns:xlink="http://www.w3.org/1999/xlink" id="Layer_1" data-name="Layer 1" width="383.18" height="127.66" viewBox="0 0 383.18 127.66"><defs><style>      .cls-1 {        fill: url(#linear-gradient);      }      .cls-2 {        fill: #6889fc;      }      .cls-3 {        fill: #fff;      }      .cls-4 {        fill: #83f0ff;      }      .cls-5 {        fill: #9fe8fc;      }      .cls-6 {        fill: #302b91;      }      .cls-7 {        fill: #5770e9;      }      .cls-8 {        fill: #7782d2;      }      .cls-9 {        fill: #7882da;      }      .cls-10 {        fill: url(#linear-gradient-8);      }      .cls-11 {        fill: url(#linear-gradient-9);      }      .cls-12 {        fill: url(#linear-gradient-3);      }      .cls-13 {        fill: url(#linear-gradient-4);      }      .cls-14 {        fill: url(#linear-gradient-2);      }      .cls-15 {        fill: url(#linear-gradient-6);      }      .cls-16 {        fill: url(#linear-gradient-7);      }      .cls-17 {        fill: url(#linear-gradient-5);      }      .cls-18 {        fill: url(#linear-gradient-14);      }      .cls-19 {        fill: url(#linear-gradient-18);      }      .cls-20 {        fill: url(#linear-gradient-20);      }      .cls-21 {        fill: url(#linear-gradient-15);      }      .cls-22 {        fill: url(#linear-gradient-19);      }      .cls-23 {        fill: url(#linear-gradient-16);      }      .cls-24 {        fill: url(#linear-gradient-17);      }      .cls-25 {        fill: url(#linear-gradient-13);      }      .cls-26 {        fill: url(#linear-gradient-12);      }      .cls-27 {        fill: url(#linear-gradient-10);      }      .cls-28 {        fill: url(#linear-gradient-11);      }    </style><linearGradient id="linear-gradient" x1="112.22" y1="-7.51" x2="16.18" y2="92.08" gradientUnits="userSpaceOnUse"><stop offset="0" stop-color="#302b91"></stop><stop offset=".31" stop-color="#67a7d9"></stop><stop offset=".48" stop-color="#83e5fe"></stop><stop offset=".54" stop-color="#7dd9f7"></stop><stop offset=".64" stop-color="#6fb9e4"></stop><stop offset=".78" stop-color="#5986c6"></stop><stop offset=".95" stop-color="#39419e"></stop><stop offset="1" stop-color="#302b91"></stop></linearGradient><linearGradient id="linear-gradient-2" x1="36.11" y1="34.53" x2="68.52" y2="82.74" gradientUnits="userSpaceOnUse"><stop offset="0" stop-color="#83e5fe"></stop><stop offset=".11" stop-color="#7dd9f7"></stop><stop offset=".31" stop-color="#6fb9e4"></stop><stop offset=".58" stop-color="#5986c6"></stop><stop offset=".9" stop-color="#39419e"></stop><stop offset="1" stop-color="#302b91"></stop></linearGradient><linearGradient id="linear-gradient-3" x1="44.4" y1="28.96" x2="76.8" y2="77.17" xlink:href="#linear-gradient-2"></linearGradient><linearGradient id="linear-gradient-4" x1="64.54" y1="15.42" x2="96.94" y2="63.64" xlink:href="#linear-gradient-2"></linearGradient><linearGradient id="linear-gradient-5" x1="54.96" y1="21.86" x2="87.36" y2="70.08" xlink:href="#linear-gradient-2"></linearGradient><linearGradient id="linear-gradient-6" x1="31.33" y1="37.74" x2="63.74" y2="85.96" xlink:href="#linear-gradient-2"></linearGradient><linearGradient id="linear-gradient-7" x1="29.38" y1="39.05" x2="61.79" y2="87.27" xlink:href="#linear-gradient-2"></linearGradient><linearGradient id="linear-gradient-8" x1="45.38" y1="28.3" x2="77.78" y2="76.51" xlink:href="#linear-gradient-2"></linearGradient><linearGradient id="linear-gradient-9" x1="19.97" y1="45.38" x2="52.38" y2="93.59" xlink:href="#linear-gradient-2"></linearGradient><linearGradient id="linear-gradient-10" x1="21.58" y1="44.29" x2="53.99" y2="92.51" xlink:href="#linear-gradient-2"></linearGradient><linearGradient id="linear-gradient-11" x1="46.93" y1="27.26" x2="79.33" y2="75.47" xlink:href="#linear-gradient-2"></linearGradient><linearGradient id="linear-gradient-12" x1="64.08" y1="15.73" x2="96.49" y2="63.94" xlink:href="#linear-gradient-2"></linearGradient><linearGradient id="linear-gradient-13" x1="76.51" y1="7.37" x2="108.92" y2="55.59" xlink:href="#linear-gradient-2"></linearGradient><linearGradient id="linear-gradient-14" x1="91.31" y1="-2.57" x2="123.71" y2="45.65" xlink:href="#linear-gradient-2"></linearGradient><linearGradient id="linear-gradient-15" x1="62.35" y1="16.89" x2="94.75" y2="65.11" xlink:href="#linear-gradient-2"></linearGradient><linearGradient id="linear-gradient-16" x1="85.96" y1="1.02" x2="118.37" y2="49.24" xlink:href="#linear-gradient-2"></linearGradient><linearGradient id="linear-gradient-17" x1="56.05" y1="21.13" x2="88.46" y2="69.34" xlink:href="#linear-gradient-2"></linearGradient><linearGradient id="linear-gradient-18" x1="68.37" y1="12.85" x2="100.78" y2="61.06" xlink:href="#linear-gradient-2"></linearGradient><linearGradient id="linear-gradient-19" x1="50.86" y1="24.62" x2="83.27" y2="72.83" xlink:href="#linear-gradient-2"></linearGradient><linearGradient id="linear-gradient-20" x1="22.75" y1="111.46" x2="128.26" y2="48.63" xlink:href="#linear-gradient"></linearGradient></defs><g><g><path class="cls-3" d="M202.47,38.98c1.63-1.63,3.56-2.88,5.78-3.75,2.23-.87,4.67-1.3,7.33-1.3,2.82,0,5.43,.56,7.82,1.67,2.39,1.11,4.56,2.78,6.52,5.01l8.47-7.82c-2.72-3.31-6.07-5.82-10.06-7.53-3.99-1.71-8.46-2.57-13.4-2.57-4.45,0-8.55,.72-12.3,2.16-3.75,1.44-7.02,3.49-9.82,6.15-2.8,2.66-4.97,5.78-6.52,9.37-1.55,3.58-2.32,7.52-2.32,11.81s.77,8.23,2.32,11.81c1.55,3.58,3.71,6.71,6.48,9.37,2.77,2.66,6.04,4.71,9.82,6.15,3.77,1.44,7.86,2.16,12.26,2.16,5,0,9.49-.87,13.48-2.61,3.99-1.74,7.34-4.26,10.06-7.58l-8.47-7.82c-1.95,2.28-4.13,3.98-6.52,5.09-2.39,1.11-5,1.67-7.82,1.67-2.66,0-5.1-.43-7.33-1.3-2.23-.87-4.15-2.12-5.78-3.75-1.63-1.63-2.89-3.56-3.79-5.78-.9-2.23-1.34-4.7-1.34-7.41s.45-5.19,1.34-7.41c.9-2.23,2.16-4.15,3.79-5.78Z"></path><path class="cls-3" d="M299.57,51.85c-1.96-1.19-4.11-2.14-6.48-2.85-2.36-.71-4.72-1.33-7.09-1.87-2.36-.54-4.52-1.09-6.48-1.63-1.96-.54-3.53-1.26-4.72-2.16-1.2-.9-1.79-2.08-1.79-3.54,0-1.25,.35-2.35,1.06-3.3,.7-.95,1.87-1.72,3.5-2.32,1.63-.6,3.72-.9,6.27-.9s5.16,.37,7.82,1.1c2.66,.73,5.32,1.86,7.98,3.38l4.07-10.02c-2.66-1.68-5.73-2.94-9.2-3.79-3.48-.84-7.01-1.26-10.59-1.26-5.38,0-9.84,.8-13.4,2.4-3.56,1.6-6.22,3.75-7.98,6.43-1.77,2.69-2.65,5.66-2.65,8.92,0,3.04,.61,5.54,1.83,7.49,1.22,1.96,2.81,3.53,4.77,4.72,1.95,1.2,4.11,2.17,6.48,2.93,2.36,.76,4.72,1.4,7.09,1.91,2.36,.52,4.52,1.06,6.48,1.63,1.95,.57,3.53,1.3,4.72,2.2,1.19,.9,1.79,2.11,1.79,3.62,0,1.19-.38,2.25-1.14,3.18-.76,.92-1.94,1.64-3.54,2.16-1.6,.52-3.71,.77-6.31,.77-3.42,0-6.8-.56-10.14-1.67-3.34-1.11-6.23-2.54-8.68-4.28l-4.48,9.94c2.55,1.96,5.92,3.54,10.1,4.77,4.18,1.22,8.55,1.83,13.11,1.83,5.43,0,9.92-.81,13.48-2.44,3.56-1.63,6.23-3.77,8.02-6.44,1.79-2.66,2.69-5.59,2.69-8.8,0-2.99-.61-5.46-1.83-7.41-1.22-1.96-2.81-3.53-4.77-4.72Z"></path><path class="cls-3" d="M382.01,80.69l-12.74-18.28s.08-.03,.11-.05c3.69-1.63,6.54-3.98,8.55-7.05,2.01-3.07,3.01-6.72,3.01-10.96s-1.01-7.98-3.01-11.08c-2.01-3.1-4.86-5.47-8.55-7.13-3.69-1.66-8.09-2.48-13.2-2.48h-24.68v57.02h13.2v-15.88h11.49c.21,0,.41,0,.61-.01l10.95,15.9h14.26Zm-17.43-43.66c2.01,1.74,3.01,4.18,3.01,7.33s-1.01,5.53-3.01,7.29c-2.01,1.77-5.05,2.65-9.12,2.65h-10.75v-19.88h10.75c4.07,0,7.11,.87,9.12,2.61Z"></path></g><g><polygon class="cls-2" points="204.61 95.52 198.55 105.73 192.39 95.52 189.24 95.52 189.24 111.96 192.81 111.96 192.81 102.3 197.63 110.22 199.35 110.22 204.19 102.09 204.21 111.96 207.78 111.96 207.73 95.52 204.61 95.52"></polygon><path class="cls-2" d="M222.72,95.52l-7.33,16.45h3.9l1.47-3.52h7.62l1.46,3.52h3.99l-7.35-16.45h-3.76Zm-.76,10.03l2.62-6.29,2.61,6.29h-5.22Z"></path><path class="cls-2" d="M252.35,106.68c1.07-.47,1.89-1.15,2.47-2.03,.58-.88,.87-1.94,.87-3.16s-.29-2.3-.87-3.2c-.58-.89-1.4-1.58-2.47-2.06-1.07-.48-2.33-.72-3.81-.72h-7.12v16.45h3.81v-4.58h3.31c.06,0,.11,0,.17,0l3.16,4.59h4.11l-3.68-5.27s.02,0,.03-.01Zm-1.39-7.31c.58,.5,.87,1.21,.87,2.11s-.29,1.59-.87,2.1c-.58,.51-1.46,.76-2.63,.76h-3.1v-5.73h3.1c1.17,0,2.05,.25,2.63,.75Z"></path><polygon class="cls-2" points="279.86 95.52 275.63 95.52 268.35 103.19 268.35 95.52 264.56 95.52 264.56 111.96 268.35 111.96 268.35 107.81 270.55 105.51 275.82 111.96 280.26 111.96 273.05 102.84 279.86 95.52"></polygon><polygon class="cls-2" points="291.61 105.1 299.24 105.1 299.24 102.14 291.61 102.14 291.61 98.57 300.25 98.57 300.25 95.52 287.82 95.52 287.82 111.96 300.56 111.96 300.56 108.91 291.61 108.91 291.61 105.1"></polygon><polygon class="cls-2" points="307.61 98.62 312.87 98.62 312.87 111.96 316.67 111.96 316.67 98.62 321.94 98.62 321.94 95.52 307.61 95.52 307.61 98.62"></polygon><rect class="cls-2" x="329.85" y="95.52" width="3.81" height="16.45"></rect><polygon class="cls-2" points="354.76 105.49 346.58 95.52 343.43 95.52 343.43 111.96 347.19 111.96 347.19 101.98 355.39 111.96 358.52 111.96 358.52 95.52 354.76 95.52 354.76 105.49"></polygon><path class="cls-2" d="M379.4,108.3c-.25,.13-.51,.25-.76,.34-.71,.24-1.44,.36-2.2,.36s-1.5-.12-2.15-.38c-.65-.25-1.21-.61-1.69-1.09-.48-.48-.85-1.04-1.1-1.68-.26-.64-.39-1.35-.39-2.11s.13-1.5,.39-2.14c.26-.64,.63-1.2,1.1-1.67,.48-.47,1.05-.83,1.7-1.08,.66-.25,1.39-.38,2.18-.38s1.6,.15,2.3,.46c.7,.31,1.35,.77,1.95,1.4l2.44-2.26c-.8-.92-1.78-1.63-2.95-2.11-1.17-.49-2.48-.73-3.94-.73-1.32,0-2.52,.21-3.62,.62-1.1,.42-2.05,1.01-2.87,1.77-.81,.77-1.44,1.67-1.89,2.7-.45,1.03-.67,2.17-.67,3.41s.22,2.37,.67,3.41c.45,1.03,1.07,1.93,1.88,2.7,.81,.77,1.75,1.36,2.84,1.77,1.09,.41,2.28,.62,3.58,.62,1.17,0,2.35-.18,3.54-.54,1.18-.36,2.22-.88,3.11-1.55v-6.67h-3.48v4.82Z"></path></g></g><g><path class="cls-6" d="M85.45,127.66c-9.25,0-18.18-1.94-26.53-5.76-1.1-.5-1.58-1.79-1.08-2.89,.5-1.1,1.8-1.58,2.89-1.08,7.78,3.56,16.09,5.36,24.71,5.36,32.79,0,59.47-26.68,59.47-59.47,0-1.2,.98-2.18,2.18-2.18s2.18,.98,2.18,2.18c0,35.2-28.63,63.83-63.83,63.83Z"></path><path class="cls-1" d="M40.78,108.5c-.58,0-1.15-.23-1.58-.68-11.34-11.92-17.58-27.54-17.58-44C21.62,28.63,50.25,0,85.45,0c17.05,0,33.08,6.64,45.13,18.7,.85,.85,.85,2.23,0,3.08-.85,.85-2.23,.85-3.08,0-11.23-11.23-26.17-17.42-42.05-17.42-32.79,0-59.47,26.68-59.47,59.47,0,15.33,5.82,29.89,16.38,40.99,.83,.87,.8,2.25-.08,3.08-.42,.4-.96,.6-1.5,.6Z"></path><g><g><path class="cls-14" d="M84.96,101.74c.61-.42,1.21-.85,1.82-1.27-.22,5.88-.52,11.73-.93,17.5-.38-5.35-.67-10.77-.88-16.23Z"></path><path class="cls-12" d="M84.58,89.11c.86-.63,1.72-1.26,2.57-1.88-.04,1.79-.07,3.58-.12,5.37-.77,.57-1.54,1.13-2.32,1.68-.05-1.72-.09-3.45-.13-5.17Z"></path><path class="cls-13" d="M87.4,64.32c-.02,4.97-.06,9.98-.12,15.02-.94,.71-1.89,1.43-2.85,2.13-.09-5.76-.12-11.49-.15-17.15,.08-17.68,.31-36.04,1.56-53.64,1.25,17.59,1.48,35.97,1.56,53.64Z"></path></g><g><path class="cls-17" d="M71.26,90.75c-.72,.47-1.43,.94-2.15,1.4,0-.02-.02-.05-.02-.07-8.52-26.69-5.64-58.36,11.76-80.94-9.32,15.94-13.63,34.62-13.28,53.01,.14,9.03,1.48,17.92,3.7,26.6Z"></path><path class="cls-15" d="M74.39,101.27c-.52,.33-1.03,.65-1.55,.97-.57-1.33-1.12-2.68-1.63-4.04,.6-.39,1.21-.77,1.81-1.17,.43,1.42,.88,2.83,1.36,4.23Z"></path><path class="cls-16" d="M80.84,117.58c-1.96-3.11-3.75-6.33-5.38-9.63,.36-.22,.73-.45,1.09-.68,1.32,3.48,2.76,6.92,4.29,10.31Z"></path></g><g><path class="cls-10" d="M55.89,96.69c.42,.83,.86,1.65,1.33,2.45-.62,.33-1.25,.65-1.87,.97-1.2-1.86-2.31-3.78-3.3-5.76-9.53-18.67-8.8-41.65-.16-60.52,4.27-9.11,10.71-18.65,20.26-22.7-5.54,3.12-9.64,8.24-12.98,13.54-12.71,21.45-15.02,49.66-3.28,72.01Z"></path><path class="cls-11" d="M60.56,104.42c.81,1.15,1.66,2.29,2.53,3.39-.42,.22-.84,.43-1.26,.64-.97-1.05-1.9-2.12-2.79-3.23,.51-.26,1.02-.53,1.52-.8Z"></path><path class="cls-27" d="M72.15,117.58c-1.96-1.41-3.86-2.92-5.66-4.54,.26-.12,.5-.26,.76-.4,1.57,1.7,3.21,3.35,4.9,4.94Z"></path></g><g><path class="cls-28" d="M100.62,89.98c1.14-.92,2.26-1.83,3.38-2.76-.42,1.64-.89,3.26-1.4,4.86-2.82,8.99-6.78,17.58-11.75,25.5,4.01-8.93,7.41-18.15,9.77-27.6Z"></path><path class="cls-26" d="M103.43,74.69c1.12-.9,2.22-1.77,3.3-2.63-.17,1.76-.39,3.5-.66,5.25-1.12,.96-2.26,1.94-3.42,2.92,.31-1.84,.57-3.68,.78-5.54Z"></path><path class="cls-25" d="M107.21,63.66c-.88,.73-1.76,1.45-2.63,2.16l-.51,.4c.02-.69,.04-1.38,.06-2.07,.35-18.39-3.96-37.07-13.28-53.01,11.47,14.9,16.63,33.75,16.36,52.52Z"></path></g><g><path class="cls-18" d="M99.54,11.14c9.54,4.04,15.99,13.59,20.26,22.7,2.19,4.77,3.87,9.81,5,14.97-.86,.75-1.71,1.48-2.56,2.21-1.64-9.29-4.95-18.28-9.71-26.33-3.35-5.3-7.44-10.42-12.99-13.54Z"></path><path class="cls-21" d="M126.51,67.01c-.31,9.48-2.53,18.86-6.87,27.34-4.63,9.28-11.72,17.21-20.1,23.22,6.47-6.09,12.24-12.96,16.26-20.89,4.34-8.25,6.76-17.31,7.44-26.53h0c1.12-1.07,2.2-2.12,3.26-3.15Z"></path><path class="cls-23" d="M123.39,61.35c-.04-.98-.11-1.97-.19-2.96,.94-.8,1.88-1.6,2.82-2.41,.1,.83,.19,1.66,.26,2.5-.96,.97-1.93,1.92-2.89,2.87Z"></path></g><path class="cls-24" d="M114.83,55.64H41.58c-.86,0-1.56-.7-1.56-1.56s.7-1.56,1.56-1.56H114.83c.86,0,1.56,.7,1.56,1.56s-.7,1.56-1.56,1.56Z"></path><path class="cls-19" d="M90.78,35.75h-16.14c-.86,0-1.56-.7-1.56-1.56s.7-1.56,1.56-1.56h16.14c.86,0,1.56,.7,1.56,1.56s-.7,1.56-1.56,1.56Z"></path><path class="cls-22" d="M92.66,74.48h-18.67c-.86,0-1.56-.7-1.56-1.56s.7-1.56,1.56-1.56h18.67c.86,0,1.56,.7,1.56,1.56s-.7,1.56-1.56,1.56Z"></path></g><path class="cls-20" d="M139.72,44.07c-4.29,4.97-8.81,9.75-13.44,14.4-.96,.97-1.93,1.92-2.89,2.87-1.69,1.66-3.39,3.3-5.1,4.93-3.56,3.33-7.68,7.1-12.22,11.03-1.12,.96-2.26,1.94-3.42,2.92h0c-4.87,4.12-10.14,8.33-15.62,12.37-.77,.57-1.54,1.13-2.32,1.68-3.38,2.44-6.83,4.79-10.32,6.99-.52,.33-1.03,.65-1.55,.97-3.24,2.01-6.5,3.88-9.76,5.56-.42,.22-.84,.43-1.26,.64-9.28,4.67-18.43,7.76-26.72,8.09-5.32-.01-10.93-.57-15.56-3.46-6.96-4.39-5.71-13.16-1.93-19.21-4.93,11.87-.57,19.15,12.41,19.57,.72,.03,1.45,.05,2.17,.05,2.56,0,5.12-.23,7.63-.8,6.25-1.5,12.73-4.13,19.22-7.47,.51-.26,1.02-.53,1.52-.8,3.56-1.89,7.13-3.99,10.66-6.21,.6-.39,1.21-.77,1.81-1.17,3.91-2.53,7.78-5.21,11.55-7.93,.86-.63,1.72-1.26,2.57-1.88,5.74-4.24,11.22-8.53,16.28-12.54,1.12-.9,2.22-1.77,3.3-2.63,.6-.47,1.18-.93,1.76-1.4,4.94-4.04,9.84-8.14,14.7-12.28,.94-.8,1.88-1.6,2.82-2.41,4.59-3.93,9.15-7.9,13.7-11.91Z"></path><circle class="cls-4" cx="57.59" cy="44.73" r="1.12"></circle><circle class="cls-8" cx="59.87" cy="85.02" r=".95"></circle><circle class="cls-4" cx="57.06" cy="70.94" r="1.46"></circle><circle class="cls-7" cx="134.45" cy="66.18" r="3.15"></circle><g><path class="cls-9" d="M163.97,70.83c-.34,0-.62-.28-.62-.62v-7.95c0-.34,.28-.62,.62-.62s.62,.28,.62,.62v7.95c0,.34-.28,.62-.62,.62Z"></path><path class="cls-9" d="M167.95,66.86h-7.95c-.34,0-.62-.28-.62-.62s.28-.62,.62-.62h7.95c.34,0,.62,.28,.62,.62s-.28,.62-.62,.62Z"></path></g><g><path class="cls-9" d="M163.44,92.24c-.34,0-.62-.28-.62-.62v-7.03c0-.34,.28-.62,.62-.62s.62,.28,.62,.62v7.03c0,.34-.28,.62-.62,.62Z"></path><path class="cls-9" d="M166.96,88.72h-7.03c-.34,0-.62-.28-.62-.62s.28-.62,.62-.62h7.03c.34,0,.62,.28,.62,.62s-.28,.62-.62,.62Z"></path></g><g><path class="cls-4" d="M150.55,107.02c-.34,0-.62-.28-.62-.62v-7.74c0-.34,.28-.62,.62-.62s.62,.28,.62,.62v7.74c0,.34-.28,.62-.62,.62Z"></path><path class="cls-4" d="M154.42,103.15h-7.74c-.34,0-.62-.28-.62-.62s.28-.62,.62-.62h7.74c.34,0,.62,.28,.62,.62s-.28,.62-.62,.62Z"></path></g><circle class="cls-3" cx="147.18" cy="38.53" r="4.05"></circle><path class="cls-3" d="M160.54,37.27l-6.52-.3c-.43-.02-.82-.25-1.04-.62l-.79-1.31c-.22-.37-.24-.82-.06-1.21l2.8-5.9,5.61,9.33Z"></path><path class="cls-5" d="M143.49,21.77l-8.84,5.67,5.26,8.21,8.84-5.67-5.26-8.21Zm.71,4.98l-4.95,3.05c-.05,.04-.12,.06-.18,.06-.14,0-.28-.06-.35-.18-.11-.19-.06-.43,.13-.54l4.95-3.05c.19-.11,.43-.06,.54,.13,.11,.18,.06,.42-.13,.54Z"></path><path class="cls-2" d="M155.79,41.12l-8.84,5.67,5.26,8.21,8.85-5.67-5.26-8.21Zm1.21,5.81l-4.95,3.05c-.06,.03-.12,.06-.19,.06-.14,0-.28-.06-.35-.19-.11-.18-.06-.43,.13-.54l4.95-3.05c.19-.11,.43-.05,.54,.13,.11,.19,.06,.43-.13,.54Z"></path><g><path class="cls-4" d="M11.29,41.88c-.34,0-.62-.28-.62-.62v-7.95c0-.34,.28-.62,.62-.62s.62,.28,.62,.62v7.95c0,.34-.28,.62-.62,.62Z"></path><path class="cls-4" d="M15.27,37.91H7.32c-.34,0-.62-.28-.62-.62s.28-.62,.62-.62h7.95c.34,0,.62,.28,.62,.62s-.28,.62-.62,.62Z"></path></g><g><path class="cls-4" d="M6.3,90.82c-.28,0-.5-.23-.5-.5v-6.45c0-.28,.23-.5,.5-.5s.5,.23,.5,.5v6.45c0,.28-.23,.5-.5,.5Z"></path><path class="cls-4" d="M9.52,87.59H3.07c-.28,0-.5-.23-.5-.5s.23-.5,.5-.5h6.45c.28,0,.5,.23,.5,.5s-.23,.5-.5,.5Z"></path></g><g><path class="cls-4" d="M6.01,72.55c-.45,0-.81-.36-.81-.81v-10.39c0-.45,.36-.81,.81-.81s.81,.36,.81,.81v10.39c0,.45-.36,.81-.81,.81Z"></path><path class="cls-4" d="M11.21,67.35H.81c-.45,0-.81-.36-.81-.81s.36-.81,.81-.81H11.21c.45,0,.81,.36,.81,.81s-.36,.81-.81,.81Z"></path></g><circle class="cls-4" cx="19.69" cy="22.37" r="1.12"></circle><circle class="cls-4" cx="41.39" cy="38.72" r="1.79"></circle><circle class="cls-4" cx="35.86" cy="67" r="3.14"></circle></g></svg>